<svg width="81" height="28" viewBox="0 0 81 28" fill="none" xmlns="http://www.w3.org/2000/svg">
<path d="M7.22857 10.5523C7.20353 12.7767 6.07692 14.7293 4.37449 15.9404C3.27291 16.7313 1.92098 17.201 0.468906 17.201H0.393799V14.6799C0.418835 14.6799 0.44387 14.6799 0.44387 14.6799C2.74716 14.6552 4.59981 12.8262 4.64988 10.5523H7.22857Z" fill="#111111"/>
<path d="M6.92814 14.6799H0.769336V17.2257H6.92814V14.6799Z" fill="#111111"/>
<path d="M7.35375 4.2002H1.32012V6.74597H7.35375V4.2002Z" fill="#111111"/>
<path d="M13.5376 10.7253C13.5376 10.7006 13.5376 10.7006 13.5376 10.6759C13.4875 7.092 10.5583 4.2002 6.92814 4.2002V6.74597C9.15633 6.74597 10.9839 8.52554 10.9839 10.7253C10.9589 12.9003 9.15633 14.6799 6.92814 14.6799V17.2257C10.5333 17.2257 13.5126 14.3339 13.5376 10.7253Z" fill="#111111"/>
<path d="M13.5376 21.1556H10.9589C10.8337 18.9558 8.98108 17.2257 6.72785 17.2257V14.6799C10.4081 14.6799 13.3874 17.5717 13.5376 21.1556Z" fill="#111111"/>
<path d="M7.22857 21.1556H4.64988C4.5247 18.9805 2.69709 17.2504 0.493942 17.201H0.468906C0.44387 17.201 0.418835 17.201 0.393799 17.201V14.6552H0.44387C1.89595 14.6799 3.24788 15.1248 4.34945 15.9157C6.02685 17.1021 7.12843 19.0052 7.22857 21.1556Z" fill="#111111"/>
<path d="M40.8266 17.4234C40.8516 18.239 41.5276 18.7581 42.7543 18.7581C44.0061 18.7581 44.7071 18.2638 44.7071 17.6706C44.7071 17.1268 44.4318 16.7313 43.4554 16.5089L41.5026 16.064C39.5498 15.6191 38.5984 14.7293 38.5984 12.9992C38.5984 10.8983 40.401 9.63777 42.9046 9.63777C45.333 9.63777 46.9854 11.0219 47.0104 13.1228H44.4568C44.4318 12.2083 43.7808 11.7634 42.7293 11.7634C41.6778 11.7634 41.102 12.1094 41.102 12.9003C41.102 13.5182 41.5777 13.889 42.504 14.1114L44.4568 14.5563C46.2844 14.9765 47.2107 15.7921 47.2107 17.4481C47.2107 19.6231 45.333 20.9578 42.6542 20.9578C39.9503 20.9578 38.2229 19.5243 38.2229 17.4234H40.8266Z" fill="#111111"/>
<path d="M48.4876 6.91898C48.4876 6.0292 49.2136 5.33714 50.1399 5.33714C51.0162 5.33714 51.7422 6.0292 51.7422 6.91898C51.7422 7.80877 51.0162 8.52554 50.1399 8.52554C49.2136 8.52554 48.4876 7.80877 48.4876 6.91898ZM48.788 9.95908H51.4668V20.6859H48.788V9.95908Z" fill="#111111"/>
<path d="M58.9275 9.63777C62.2823 9.63777 64.7358 11.9364 64.7358 15.2731C64.7358 18.6098 62.3073 20.9084 58.9275 20.9084C55.5476 20.9084 53.1192 18.6098 53.1192 15.2731C53.1192 11.9364 55.5727 9.63777 58.9275 9.63777ZM58.9275 18.5603C60.7801 18.5603 62.0569 17.2257 62.0569 15.2731C62.0569 13.3205 60.7801 11.9858 58.9275 11.9858C57.0748 11.9858 55.798 13.3205 55.798 15.2731C55.798 17.2257 57.0999 18.5603 58.9275 18.5603Z" fill="#111111"/>
<path d="M26.2808 9.95908L23.8273 15.7427L21.8495 20.6612H19.0955L14.7894 9.95908H17.6435L19.3459 14.3586L19.5211 14.8282L20.5226 17.3245L23.5018 9.95908H26.2808Z" fill="#111111"/>
<path d="M38.4232 9.95908H35.6442L32.69 17.3245L31.6885 14.8282L31.4882 14.3586L29.8109 9.95908H26.9568L31.2379 20.6365L30.0612 23.8002H32.8151L34.142 20.2658L35.9697 15.7427L38.4232 9.95908Z" fill="#111111"/>
<path d="M73.974 9.78607C73.5484 9.66249 73.0977 9.61306 72.572 9.61306C72.3967 9.61306 72.2465 9.61306 72.0713 9.63777H72.0462C72.0212 9.63777 72.0212 9.63777 71.9962 9.63777C70.6442 9.73664 69.7179 10.2557 69.092 10.8983V9.93437H66.3881V20.6612H69.067V14.9023C69.067 13.1722 70.0684 12.0353 71.7208 12.0353C73.0977 12.0353 73.999 12.9003 73.999 14.7046V20.6859H76.6779V14.0867C76.7029 11.8128 75.7766 10.2804 73.974 9.78607Z" fill="#111111"/>
<path d="M80.6335 11.3432C80.6335 12.1094 80.0326 12.7026 79.2315 12.7026C78.4554 12.7026 77.8295 12.1094 77.8295 11.3432C77.8295 10.6017 78.4554 10.0085 79.2315 10.0085C80.0326 9.9838 80.6335 10.577 80.6335 11.3432ZM78.18 11.3432C78.18 11.9364 78.6306 12.406 79.2565 12.406C79.8574 12.406 80.308 11.9364 80.308 11.3432C80.308 10.75 79.8574 10.2557 79.2565 10.2557C78.6306 10.2557 78.18 10.75 78.18 11.3432ZM79.0312 12.0353H78.7057V10.7006C78.8309 10.6759 79.0062 10.6511 79.2315 10.6511C79.4819 10.6511 79.607 10.7006 79.7072 10.75C79.7823 10.7994 79.8324 10.923 79.8324 11.0466C79.8324 11.1949 79.7072 11.3185 79.557 11.3679C79.6822 11.4173 79.7573 11.5162 79.8073 11.6892C79.8574 11.887 79.8824 11.9858 79.9075 12.0353H79.557C79.5069 11.9858 79.4819 11.8622 79.4568 11.7139C79.4318 11.5656 79.3567 11.4915 79.1814 11.4915H79.0312V12.0353ZM79.0312 11.269H79.1814C79.3567 11.269 79.5069 11.2196 79.5069 11.0713C79.5069 10.9477 79.4068 10.8736 79.2065 10.8736C79.1314 10.8736 79.0563 10.8736 79.0312 10.8983V11.269Z" fill="#111111"/>
</svg>
