<svg width="116" height="40" viewBox="0 0 116 40" fill="none" xmlns="http://www.w3.org/2000/svg">
<path d="M10.3265 17.0744C10.2907 20.2522 8.68125 23.0416 6.2492 24.7718C4.67552 25.9016 2.74419 26.5725 0.669796 26.5725H0.5625V22.971C0.598265 22.971 0.634031 22.971 0.634031 22.971C3.92445 22.9357 6.57109 20.3228 6.64262 17.0744H10.3265Z" fill="white"/>
<path d="M9.89727 22.971H1.09898V26.6078H9.89727V22.971Z" fill="white"/>
<path d="M10.5053 8H1.88582V11.6368H10.5053V8Z" fill="white"/>
<path d="M19.3393 17.3216C19.3393 17.2863 19.3393 17.2863 19.3393 17.2509C19.2678 12.1311 15.0833 8 9.89727 8V11.6368C13.0804 11.6368 15.6913 14.1791 15.6913 17.3216C15.6555 20.4288 13.0804 22.971 9.89727 22.971V26.6078C15.0475 26.6078 19.3036 22.4767 19.3393 17.3216Z" fill="white"/>
<path d="M19.3393 32.2219H15.6555C15.4767 29.0794 12.83 26.6078 9.61115 26.6078V22.971C14.8687 22.971 19.1248 27.1021 19.3393 32.2219Z" fill="white"/>
<path d="M10.3265 32.2219H6.64262C6.46379 29.1148 3.85292 26.6431 0.705562 26.5725H0.669796C0.634031 26.5725 0.598265 26.5725 0.5625 26.5725V22.9357H0.634031C2.70842 22.971 4.63976 23.6066 6.21344 24.7364C8.60972 26.4313 10.1834 29.1501 10.3265 32.2219Z" fill="white"/>
<path d="M58.3236 26.8903C58.3594 28.0555 59.3251 28.797 61.0776 28.797C62.8658 28.797 63.8673 28.0908 63.8673 27.2434C63.8673 26.4666 63.4739 25.9016 62.079 25.5839L59.2893 24.9483C56.4996 24.3127 55.1405 23.0416 55.1405 20.57C55.1405 17.5687 57.7156 15.768 61.2922 15.768C64.7614 15.768 67.1219 17.7453 67.1577 20.7465H63.5096C63.4739 19.4401 62.544 18.8045 61.0418 18.8045C59.5397 18.8045 58.7171 19.2989 58.7171 20.4288C58.7171 21.3115 59.3966 21.8411 60.7199 22.1589L63.5096 22.7945C66.1205 23.3947 67.4438 24.5599 67.4438 26.9256C67.4438 30.0328 64.7614 31.9395 60.9345 31.9395C57.0718 31.9395 54.604 29.8916 54.604 26.8903H58.3236Z" fill="white"/>
<path d="M69.2679 11.884C69.2679 10.6129 70.3051 9.62421 71.6284 9.62421C72.8802 9.62421 73.9174 10.6129 73.9174 11.884C73.9174 13.1551 72.8802 14.1791 71.6284 14.1791C70.3051 14.1791 69.2679 13.1551 69.2679 11.884ZM69.697 16.227H73.5239V31.5511H69.697V16.227Z" fill="white"/>
<path d="M84.182 15.768C88.9746 15.768 92.4796 19.0517 92.4796 23.8184C92.4796 28.5851 89.0104 31.8689 84.182 31.8689C79.3537 31.8689 75.8845 28.5851 75.8845 23.8184C75.8845 19.0517 79.3895 15.768 84.182 15.768ZM84.182 28.5145C86.8287 28.5145 88.6527 26.6078 88.6527 23.8184C88.6527 21.029 86.8287 19.1223 84.182 19.1223C81.5354 19.1223 79.7114 21.029 79.7114 23.8184C79.7114 26.6078 81.5712 28.5145 84.182 28.5145Z" fill="white"/>
<path d="M37.5439 16.227L34.0389 24.4893L31.2135 31.5158H27.2793L21.1276 16.227H25.2049L27.6369 22.512L27.8873 23.1829L29.3179 26.7491L33.574 16.227H37.5439Z" fill="white"/>
<path d="M54.8902 16.227H50.9202L46.6999 26.7491L45.2693 23.1829L44.9831 22.512L42.5869 16.227H38.5096L44.6255 31.4805L42.9445 36H46.8787L48.7743 30.9508L51.3852 24.4893L54.8902 16.227Z" fill="white"/>
<path d="M105.677 15.9798C105.069 15.8033 104.425 15.7327 103.674 15.7327C103.424 15.7327 103.209 15.7327 102.959 15.768H102.923C102.887 15.768 102.887 15.768 102.852 15.768C100.92 15.9092 99.5969 16.6507 98.7028 17.5687V16.1917H94.8401V31.5158H98.667V23.2888C98.667 20.8172 100.098 19.1929 102.458 19.1929C104.425 19.1929 105.713 20.4288 105.713 23.0063V31.5511H109.54V22.1236C109.575 18.8752 108.252 16.686 105.677 15.9798Z" fill="white"/>
<path d="M115.191 18.2043C115.191 19.2989 114.332 20.1463 113.188 20.1463C112.079 20.1463 111.185 19.2989 111.185 18.2043C111.185 17.145 112.079 16.2976 113.188 16.2976C114.332 16.2623 115.191 17.1097 115.191 18.2043ZM111.686 18.2043C111.686 19.0517 112.329 19.7226 113.224 19.7226C114.082 19.7226 114.726 19.0517 114.726 18.2043C114.726 17.3569 114.082 16.6507 113.224 16.6507C112.329 16.6507 111.686 17.3569 111.686 18.2043ZM112.902 19.1929H112.437V17.2863C112.616 17.2509 112.866 17.2156 113.188 17.2156C113.545 17.2156 113.724 17.2863 113.867 17.3569C113.975 17.4275 114.046 17.604 114.046 17.7806C114.046 17.9924 113.867 18.169 113.653 18.2396C113.832 18.3102 113.939 18.4515 114.01 18.6986C114.082 18.9811 114.118 19.1223 114.153 19.1929H113.653C113.581 19.1223 113.545 18.9458 113.51 18.7339C113.474 18.5221 113.367 18.4161 113.116 18.4161H112.902V19.1929ZM112.902 18.0984H113.116C113.367 18.0984 113.581 18.0277 113.581 17.8159C113.581 17.6393 113.438 17.5334 113.152 17.5334C113.045 17.5334 112.937 17.5334 112.902 17.5687V18.0984Z" fill="white"/>
</svg>
